{"title":"The.Good.Doctor.2011.BDRip.XVID.AC3.HQ.Hive-CM8 ","uid":7399708,"size":1479856294,"categoryP":"video","categoryS":"movies","magnet":"?xt=urn:btih:a272b36e58526c6e9446420a85961e67e84092f1&amp;dn=The.Good.Doctor.2011.BDRip.XVID.AC3.HQ.Hive-CM8+&amp;tr=udp%3A%2F%2Ftracker.openbittorrent.com%3A80&amp;tr=udp%3A%2F%2Fopen.demonii.com%3A1337&amp;tr=udp%3A%2F%2Ftracker.coppersurfer.tk%3A6969&amp;tr=udp%3A%2F%2Fexodus.desync.com%3A6969","seeders":0,"leechers":2,"uploader":"HeroMaster","files":-1,"time":1341035805,"description":"The.Good.Doctor.2011.BDRip.XVID.AC3.HQ.Hive-CM8\n\n\nThx Hive\n\nCM8 Doing It Right The First Time \n\n\nEncode:\n\nwell what hottie do we have here, coming to US cinemas in august, but out on \nbluray in germany already\nisnt that great, also came along with eng audio, cant be any better than this \nand also nice cast\nenjoy\n\nSource: German Bluray\n\nVideo: 720x384 @bitrate 1700 2pass\nAudio: English DTS to AC3 5.1 @448\nSample: yes included\n\n &lt;a href=&quot;\nhttp://www.imdb.com/title/tt1582271/&quot; rel=&quot;nofollow&quot; target=&quot;_NEW&quot;&gt;\nhttp://www.imdb.com/title/tt1582271/&lt;/a&gt;\n\n\nVideo\nID                             : 0\nFormat                         : MPEG-4 Visual\nFormat profile                 : Advanced Simple@L5\nFormat settings, BVOP          : 2\nFormat settings, QPel          : Yes\nFormat settings, GMC           : No warppoints\nFormat settings, Matrix        : Default (H.263)\nMuxing mode                    : Packed bitstream\nCodec ID                       : XVID\nCodec ID/Hint                  : XviD\nDuration                       : 1h 30mn\nBit rate                       : 1 699 Kbps\nWidth                          : 720 pixels\nHeight                         : 384 pixels\nDisplay aspect ratio           : 1.85:1\nFrame rate                     : 23.976 fps\nColor space                    : YUV\nChroma subsampling             : 4:2:0\nBit depth                      : 8 bits\nScan type                      : Progressive\nCompression mode               : Lossy\nBits/(Pixel*Frame)             : 0.256\nStream size                    : 1.08 GiB (79%)\nWriting library                : XviD 1.2.1 (UTC 2008-12-04)\n\nAudio\nID                             : 1\nFormat                         : AC-3\nFormat/Info                    : Audio Coding 3\nMode extension                 : CM (complete main)\nFormat settings, Endianness    : Big\nCodec ID                       : 2000\nDuration                       : 1h 30mn\nBit rate mode                  : Constant\nBit rate                       : 448 Kbps\nChannel(s)                     : 6 channels\nChannel positions              : Front: L C R, Side: L R, LFE\nSampling rate                  : 48.0 KHz\nBit depth                      : 16 bits\nCompression mode               : Lossy\nStream size                    : 291 MiB (21%)\nAlignment                      : Split accross interleaves\nInterleave, duration           : 42 ms (1.00 video frame)\nInterleave, preload duration   : 500 ms\n\n\nPlot:\n\nDr. Martin Blake, who has spent his life looking for respect, meets an 18-year-old patient named Diane, suffering from a kidney infection, and gets a much-needed boost of self-esteem. However, when her health starts improving, Martin fears losing her, so he begins tampering with her treatment, keeping Diane sick and in the hospital right next to him.\n\n\nPoster:\n\n &lt;a href=&quot;\nhttp://i.imgur.com/x4UaX.png&quot; rel=&quot;nofollow&quot; target=&quot;_NEW&quot;&gt;\nhttp://i.imgur.com/x4UaX.png&lt;/a&gt;\n\n\nScreenshots:\n\n &lt;a href=&quot;\nhttp://i.imgur.com/9DZtE.jpg&quot; rel=&quot;nofollow&quot; target=&quot;_NEW&quot;&gt;\nhttp://i.imgur.com/9DZtE.jpg&lt;/a&gt;\n\n\nENJOY!","torrent":{"xt":"urn:btih:a272b36e58526c6e9446420a85961e67e84092f1","amp;dn":"The.Good.Doctor.2011.BDRip.XVID.AC3.HQ.Hive-CM8+","amp;tr":["udp%3A%2F%2Ftracker.openbittorrent.com%3A80","udp%3A%2F%2Fopen.demonii.com%3A1337","udp%3A%2F%2Ftracker.coppersurfer.tk%3A6969","udp%3A%2F%2Fexodus.desync.com%3A6969"],"infoHash":"a272b36e58526c6e9446420a85961e67e84092f1","infoHashBuffer":{"type":"Buffer","data":[162,114,179,110,88,82,108,110,148,70,66,10,133,150,30,103,232,64,146,241]},"announce":[],"urlList":[]}}